<svg xmlns="http://www.w3.org/2000/svg" xmlns:xlink="http://www.w3.org/1999/xlink" width="134pt" height="188pt" viewBox="0.00 0.00 134.00 188.00">
<g id="graph0" class="graph" transform="scale(1 1) rotate(0) translate(4 184)">
<title>G</title>
<polygon fill="white" stroke="none" points="-4,4 -4,-184 130,-184 130,4 -4,4"/>
<!-- T4 -->
<g id="node1" class="node">
<title>T4</title>
<ellipse fill="none" stroke="black" cx="27" cy="-162" rx="27" ry="18"/>
<text text-anchor="middle" x="27" y="-157.8" font-family="Times,serif" font-size="14.00">T4</text>
</g>
<!-- T1 -->
<g id="node2" class="node">
<title>T1</title>
<ellipse fill="none" stroke="black" cx="44" cy="-90" rx="27" ry="18"/>
<text text-anchor="middle" x="44" y="-85.8" font-family="Times,serif" font-size="14.00">T1</text>
</g>
<!-- T4&#45;&gt;T1 -->
<g id="edge1" class="edge">
<title>T4-&gt;T1</title>
<path fill="none" stroke="black" d="M25.29,-143.7C26.37,-135.93 28.42,-126.58 30.87,-117.93"/>
<polygon fill="black" stroke="black" points="34.15,-119.18 33.83,-108.59 27.47,-117.06 34.15,-119.18"/>
</g>
<!-- T2 -->
<g id="node3" class="node">
<title>T2</title>
<ellipse fill="none" stroke="black" cx="44" cy="-18" rx="27" ry="18"/>
<text text-anchor="middle" x="44" y="-13.8" font-family="Times,serif" font-size="14.00">T2</text>
</g>
<!-- T4&#45;&gt;T2 -->
<g id="edge2" class="edge">
<title>T4-&gt;T2</title>
<path fill="none" stroke="black" d="M18.6,-144.7C10.45,-126.69 0.34,-96.92 8,-72 11.18,-61.65 17.15,-51.51 23.33,-42.91"/>
<polygon fill="black" stroke="black" points="25.99,-45.19 29.33,-35.13 20.45,-40.91 25.99,-45.19"/>
</g>
<!-- T1&#45;&gt;T4 -->
<g id="edge4" class="edge">
<title>T1-&gt;T4</title>
<path fill="none" stroke="black" d="M45.74,-108.12C44.67,-115.89 42.62,-125.26 40.16,-133.94"/>
<polygon fill="black" stroke="black" points="36.88,-132.73 37.2,-143.32 43.55,-134.84 36.88,-132.73"/>
</g>
<!-- T1&#45;&gt;T2 -->
<g id="edge3" class="edge">
<title>T1-&gt;T2</title>
<path fill="none" stroke="black" d="M38.12,-72.05C37.33,-64.57 37.08,-55.58 37.37,-47.14"/>
<polygon fill="black" stroke="black" points="40.85,-47.51 38.04,-37.3 33.87,-47.04 40.85,-47.51"/>
</g>
<!-- T2&#45;&gt;T1 -->
<g id="edge5" class="edge">
<title>T2-&gt;T1</title>
<path fill="none" stroke="black" d="M49.86,-35.79C50.66,-43.25 50.92,-52.24 50.64,-60.69"/>
<polygon fill="black" stroke="black" points="47.16,-60.33 49.98,-70.54 54.14,-60.8 47.16,-60.33"/>
</g>
<!-- T3 -->
<g id="node4" class="node">
<title>T3</title>
<ellipse fill="none" stroke="black" cx="99" cy="-162" rx="27" ry="18"/>
<text text-anchor="middle" x="99" y="-157.8" font-family="Times,serif" font-size="14.00">T3</text>
</g>
<!-- T3&#45;&gt;T1 -->
<g id="edge7" class="edge">
<title>T3-&gt;T1</title>
<path fill="none" stroke="black" d="M86.79,-145.46C79.89,-136.67 71.09,-125.48 63.27,-115.53"/>
<polygon fill="black" stroke="black" points="66.04,-113.38 57.11,-107.68 60.53,-117.71 66.04,-113.38"/>
</g>
<!-- T3&#45;&gt;T2 -->
<g id="edge6" class="edge">
<title>T3-&gt;T2</title>
<path fill="none" stroke="black" d="M97.3,-143.67C95.05,-125.29 90.11,-95.69 80,-72 75.75,-62.04 69.52,-51.99 63.44,-43.36"/>
<polygon fill="black" stroke="black" points="66.4,-41.48 57.65,-35.52 60.77,-45.64 66.4,-41.48"/>
</g>
</g>
</svg>