<svg xmlns="http://www.w3.org/2000/svg" xmlns:xlink="http://www.w3.org/1999/xlink" width="89pt" height="188pt" viewBox="0.00 0.00 89.00 188.00">
<g id="graph0" class="graph" transform="scale(1 1) rotate(0) translate(4 184)">
<title>G</title>
<polygon fill="white" stroke="none" points="-4,4 -4,-184 85,-184 85,4 -4,4"/>
<!-- T1 -->
<g id="node1" class="node">
<title>T1</title>
<ellipse fill="none" stroke="black" cx="54" cy="-162" rx="27" ry="18"/>
<text text-anchor="middle" x="54" y="-157.8" font-family="Times,serif" font-size="14.00">T1</text>
</g>
<!-- T2 -->
<g id="node2" class="node">
<title>T2</title>
<ellipse fill="none" stroke="black" cx="27" cy="-90" rx="27" ry="18"/>
<text text-anchor="middle" x="27" y="-85.8" font-family="Times,serif" font-size="14.00">T2</text>
</g>
<!-- T1&#45;&gt;T2 -->
<g id="edge1" class="edge">
<title>T1-&gt;T2</title>
<path fill="none" stroke="black" d="M47.46,-144.05C44.48,-136.32 40.87,-126.96 37.52,-118.27"/>
<polygon fill="black" stroke="black" points="40.88,-117.27 34.02,-109.2 34.35,-119.79 40.88,-117.27"/>
</g>
<!-- T3 -->
<g id="node3" class="node">
<title>T3</title>
<ellipse fill="none" stroke="black" cx="54" cy="-18" rx="27" ry="18"/>
<text text-anchor="middle" x="54" y="-13.8" font-family="Times,serif" font-size="14.00">T3</text>
</g>
<!-- T1&#45;&gt;T3 -->
<g id="edge3" class="edge">
<title>T1-&gt;T3</title>
<path fill="none" stroke="black" d="M57.65,-143.91C59.68,-133.57 61.98,-120.09 63,-108 64.34,-92.06 64.34,-87.94 63,-72 62.32,-63.97 61.08,-55.33 59.73,-47.4"/>
<polygon fill="black" stroke="black" points="63.17,-46.79 57.93,-37.58 56.29,-48.05 63.17,-46.79"/>
</g>
<!-- T2&#45;&gt;T3 -->
<g id="edge2" class="edge">
<title>T2-&gt;T3</title>
<path fill="none" stroke="black" d="M33.54,-72.05C36.52,-64.32 40.13,-54.96 43.48,-46.27"/>
<polygon fill="black" stroke="black" points="46.65,-47.79 46.98,-37.2 40.12,-45.27 46.65,-47.79"/>
</g>
</g>
</svg>