<svg xmlns="http://www.w3.org/2000/svg" xmlns:xlink="http://www.w3.org/1999/xlink" width="62pt" height="116pt" viewBox="0.00 0.00 62.00 116.00">
<g id="graph0" class="graph" transform="scale(1 1) rotate(0) translate(4 112)">
<title>G</title>
<polygon fill="white" stroke="none" points="-4,4 -4,-112 58,-112 58,4 -4,4"/>
<!-- T1 -->
<g id="node1" class="node">
<title>T1</title>
<ellipse fill="none" stroke="black" cx="27" cy="-90" rx="27" ry="18"/>
<text text-anchor="middle" x="27" y="-85.8" font-family="Times,serif" font-size="14.00">T1</text>
</g>
<!-- T2 -->
<g id="node2" class="node">
<title>T2</title>
<ellipse fill="none" stroke="black" cx="27" cy="-18" rx="27" ry="18"/>
<text text-anchor="middle" x="27" y="-13.8" font-family="Times,serif" font-size="14.00">T2</text>
</g>
<!-- T1&#45;&gt;T2 -->
<g id="edge1" class="edge">
<title>T1-&gt;T2</title>
<path fill="none" stroke="black" d="M21.12,-72.05C20.33,-64.57 20.08,-55.58 20.37,-47.14"/>
<polygon fill="black" stroke="black" points="23.85,-47.51 21.04,-37.3 16.87,-47.04 23.85,-47.51"/>
</g>
<!-- T2&#45;&gt;T1 -->
<g id="edge2" class="edge">
<title>T2-&gt;T1</title>
<path fill="none" stroke="black" d="M32.86,-35.79C33.66,-43.25 33.92,-52.24 33.64,-60.69"/>
<polygon fill="black" stroke="black" points="30.16,-60.33 32.98,-70.54 37.14,-60.8 30.16,-60.33"/>
</g>
</g>
</svg>